{
  "accessors": [
    {
      "bufferView": 2,
      "componentType": 5126,
      "count": 9216,
      "max": [
        -0.75855398178100586,
        19.898969650268555,
        -1.8319829702377319
      ],
      "min": [
        -2.1544630527496338,
        18.866025924682617,
        -2.7819890975952148
      ],
      "type": "VEC3"
    },
    {
      "bufferView": 2,
      "byteOffset": 110592,
      "componentType": 5126,
      "count": 9216,
      "max": [
        0.9991716742515564,
        0.9997560977935791,
        0.99803304672241211
      ],
      "min": [
        -0.9995308518409729,
        -0.99995315074920654,
        -0.99999529123306274
      ],
      "type": "VEC3"
    },
    {
      "bufferView": 3,
      "componentType": 5126,
      "count": 9216,
      "max": [
        0.99930697679519653,
        0.99606263637542725,
        0.99662864208221436,
        1
      ],
      "min": [
        -0.99995499849319458,
        -0.99992704391479492,
        -0.99708449840545654,
        1
      ],
      "type": "VEC4"
    },
    {
      "bufferView": 3,
      "byteOffset": 147456,
      "componentType": 5126,
      "count": 9216,
      "max": [
        0.53333336114883423,
        0.46274510025978088,
        0.54509806632995605,
        1
      ],
      "min": [
        0.11764705926179886,
        0.0039215688593685627,
        0,
        1
      ],
      "type": "VEC4"
    },
    {
      "bufferView": 1,
      "componentType": 5126,
      "count": 9216,
      "max": [
        0.9755290150642395,
        0.99995297193527222
      ],
      "min": [
        7.3000002885237336e-05,
        9.899999713525176e-05
      ],
      "type": "VEC2"
    },
    {
      "bufferView": 0,
      "componentType": 5125,
      "count": 38997,
      "max": [
        9215
      ],
      "min": [
        0
      ],
      "type": "SCALAR"
    }
  ],
  "asset": {
    "extras": {
      "author": "whynotmeebaby (https://sketchfab.com/whynotmeebaby)",
      "license": "CC-BY-4.0 (http://creativecommons.org/licenses/by/4.0/)",
      "source": "https://sketchfab.com/3d-models/lips-3780dc7d59e44675b807fb469406df92",
      "title": "LIPS"
    },
    "generator": "Sketchfab-5.39.0",
    "version": "2.0"
  },
  "bufferViews": [
    {
      "buffer": 0,
      "byteLength": 155988,
      "byteOffset": 0,
      "name": "floatBufferViews",
      "target": 34963
    },
    {
      "buffer": 0,
      "byteLength": 73728,
      "byteOffset": 155988,
      "byteStride": 8,
      "name": "floatBufferViews",
      "target": 34962
    },
    {
      "buffer": 0,
      "byteLength": 221184,
      "byteOffset": 229716,
      "byteStride": 12,
      "name": "floatBufferViews",
      "target": 34962
    },
    {
      "buffer": 0,
      "byteLength": 294912,
      "byteOffset": 450900,
      "byteStride": 16,
      "name": "floatBufferViews",
      "target": 34962
    }
  ],
  "buffers": [
    {
      "byteLength": 745812,
      "uri": "scene.bin"
    }
  ],
  "extensionsRequired": [
    "KHR_materials_pbrSpecularGlossiness"
  ],
  "extensionsUsed": [
    "KHR_materials_pbrSpecularGlossiness"
  ],
  "images": [
    {
      "uri": "textures/LIPS_emissive.jpeg"
    },
    {
      "uri": "textures/LIPS_specularGlossiness.png"
    },
    {
      "uri": "textures/LIPS_diffuse.jpeg"
    }
  ],
  "materials": [
    {
      "doubleSided": true,
      "emissiveFactor": [
        1,
        1,
        1
      ],
      "emissiveTexture": {
        "index": 0,
        "texCoord": 0
      },
      "extensions": {
        "KHR_materials_pbrSpecularGlossiness": {
          "diffuseFactor": [
            0.13681131999999999,
            0.13681131999999999,
            0.13681131999999999,
            1
          ],
          "diffuseTexture": {
            "index": 2,
            "texCoord": 0
          },
          "glossinessFactor": 0.6580234412,
          "specularFactor": [
            0.30044768360000002,
            0.30044768360000002,
            0.30044768360000002
          ],
          "specularGlossinessTexture": {
            "index": 1,
            "texCoord": 0
          }
        }
      },
      "name": "LIPS"
    }
  ],
  "meshes": [
    {
      "primitives": [
        {
          "attributes": {
            "COLOR_0": 3,
            "NORMAL": 1,
            "POSITION": 0,
            "TANGENT": 2,
            "TEXCOORD_0": 4
          },
          "indices": 5,
          "material": 0,
          "mode": 4
        }
      ]
    }
  ],
  "nodes": [
    {
      "children": [
        1
      ],
      "name": "RootNode (gltf orientation matrix)",
      "rotation": [
        -0.70710678118654746,
        -0,
        -0,
        0.70710678118654757
      ]
    },
    {
      "children": [
        2
      ],
      "matrix": [
        0.99223583936691284,
        0.06775306910276413,
        -0.10429562628269196,
        0,
        -0.094303488731384277,
        -0.1368725448846817,
        -0.98608964681625366,
        0,
        -0.081085801124572754,
        0.98826891183853149,
        -0.12942050397396088,
        0,
        1.6294621229171753,
        24.414005279541016,
        16.355388641357422,
        1
      ],
      "name": "RootNode (model correction matrix)"
    },
    {
      "children": [
        3
      ],
      "name": "LIPS.obj.cleaner.materialmerger.gles"
    },
    {
      "mesh": 0,
      "name": ""
    }
  ],
  "samplers": [
    {
      "magFilter": 9729,
      "minFilter": 9987,
      "wrapS": 10497,
      "wrapT": 10497
    }
  ],
  "scene": 0,
  "scenes": [
    {
      "name": "OSG_Scene",
      "nodes": [
        0
      ]
    }
  ],
  "textures": [
    {
      "sampler": 0,
      "source": 0
    },
    {
      "sampler": 0,
      "source": 1
    },
    {
      "sampler": 0,
      "source": 2
    }
  ]
}

